<svg width="60" height="60" viewBox="0 0 60 60" fill="none" xmlns="http://www.w3.org/2000/svg">
<g clip-path="url(#clip0)">
<path d="M38.2762 21.7383C37.5001 21.7383 36.8711 22.3673 36.8711 23.1434V49.7008C36.8711 50.4764 37.5001 51.1059 38.2762 51.1059C39.0524 51.1059 39.6814 50.4764 39.6814 49.7008V23.1434C39.6814 22.3673 39.0524 21.7383 38.2762 21.7383Z" fill="black"/>
<path d="M21.6952 21.7383C20.9191 21.7383 20.29 22.3673 20.29 23.1434V49.7008C20.29 50.4764 20.9191 51.1059 21.6952 51.1059C22.4713 51.1059 23.1003 50.4764 23.1003 49.7008V23.1434C23.1003 22.3673 22.4713 21.7383 21.6952 21.7383Z" fill="black"/>
<path d="M9.61097 17.8626V52.4825C9.61097 54.5287 10.3613 56.4504 11.672 57.8292C12.9767 59.2118 14.7924 59.9967 16.6927 60H43.2785C45.1793 59.9967 46.995 59.2118 48.2992 57.8292C49.6099 56.4504 50.3603 54.5287 50.3603 52.4825V17.8626C52.9658 17.171 54.6542 14.6538 54.3056 11.9802C53.9566 9.30709 51.6792 7.3075 48.9831 7.30695H41.7889V5.55052C41.7971 4.07347 41.2131 2.65515 40.1674 1.61171C39.1218 0.56883 37.7013 -0.0118909 36.2242 0.000184625H23.747C22.2699 -0.0118909 20.8494 0.56883 19.8038 1.61171C18.7581 2.65515 18.1741 4.07347 18.1824 5.55052V7.30695H10.9881C8.29199 7.3075 6.01467 9.30709 5.66557 11.9802C5.31703 14.6538 7.0054 17.171 9.61097 17.8626V17.8626ZM43.2785 57.1897H16.6927C14.2902 57.1897 12.4213 55.1259 12.4213 52.4825V17.9861H47.55V52.4825C47.55 55.1259 45.681 57.1897 43.2785 57.1897ZM20.9927 5.55052C20.9833 4.81885 21.2709 4.11463 21.7902 3.59813C22.3089 3.08163 23.0148 2.79786 23.747 2.81048H36.2242C36.9565 2.79786 37.6623 3.08163 38.181 3.59813C38.7003 4.11408 38.9879 4.81885 38.9786 5.55052V7.30695H20.9927V5.55052ZM10.9881 10.1172H48.9831C50.38 10.1172 51.5124 11.2496 51.5124 12.6465C51.5124 14.0434 50.38 15.1758 48.9831 15.1758H10.9881C9.59121 15.1758 8.45885 14.0434 8.45885 12.6465C8.45885 11.2496 9.59121 10.1172 10.9881 10.1172V10.1172Z" fill="black"/>
<path d="M29.9862 21.7383C29.2101 21.7383 28.5811 22.3673 28.5811 23.1434V49.7008C28.5811 50.4764 29.2101 51.1059 29.9862 51.1059C30.7623 51.1059 31.3913 50.4764 31.3913 49.7008V23.1434C31.3913 22.3673 30.7623 21.7383 29.9862 21.7383Z" fill="black"/>
</g>
<defs>
<clipPath id="clip0">
<rect width="60" height="60" fill="white"/>
</clipPath>
</defs>
</svg>
