<?xml version="1.0" standalone="no"?>
<!DOCTYPE svg PUBLIC "-//W3C//DTD SVG 20010904//EN"
 "http://www.w3.org/TR/2001/REC-SVG-20010904/DTD/svg10.dtd">
<svg version="1.0" xmlns="http://www.w3.org/2000/svg"
 width="400.000000pt" height="400.000000pt" viewBox="0 0 400.000000 400.000000"
 preserveAspectRatio="xMidYMid meet">

<g transform="translate(0.000000,400.000000) scale(0.100000,-0.100000)"
fill="#000000" stroke="none">
<path d="M1878 3984 c-130 -31 -109 -12 -975 -877 -872 -871 -856 -853 -888
-988 -19 -81 -19 -157 0 -238 31 -130 44 -145 515 -616 l440 -440 0 242 c0
136 -4 253 -10 268 -12 32 -62 54 -110 48 -57 -8 -62 5 -58 166 2 114 6 143
20 157 28 29 163 35 733 32 494 -2 553 0 581 15 53 28 55 42 52 410 l-3 337
-27 27 c-23 23 -37 28 -81 28 -29 1 -58 4 -65 9 -8 5 -12 48 -12 147 0 134 1
141 24 163 34 35 113 39 740 35 l546 -4 -502 502 c-393 393 -515 509 -559 533
-107 56 -242 73 -361 44z"/>
<path d="M2605 2542 c-23 -11 -46 -31 -53 -46 -9 -20 -12 -159 -12 -556 l0
-530 -25 -16 c-22 -14 -80 -16 -557 -13 -477 3 -536 1 -564 -13 -56 -30 -56
-34 -55 -493 l2 -420 182 -182 c196 -197 242 -230 358 -258 122 -28 250 -12
358 45 83 44 1667 1630 1705 1707 54 109 68 234 41 352 -26 108 -64 166 -205
306 l-130 130 -503 3 c-472 2 -504 1 -542 -16z"/>
</g>
</svg>
